<svg width="21" height="20" viewBox="0 0 21 20" fill="none" xmlns="http://www.w3.org/2000/svg">
<path d="M16.5 2.5C18.7091 2.5 20.5 4.29086 20.5 6.5L20.5 15.5C20.5 17.7091 18.7091 19.5 16.5 19.5L4.5 19.5C2.29086 19.5 0.499999 17.7091 0.499999 15.5L0.5 6.5C0.5 4.29086 2.29086 2.5 4.5 2.5L16.5 2.5Z" fill="white"/>
<path fill-rule="evenodd" clip-rule="evenodd" d="M19.3 15.5L19.3 6.5C19.3 4.9536 18.0464 3.7 16.5 3.7L4.5 3.7C2.9536 3.7 1.7 4.9536 1.7 6.5L1.7 15.5C1.7 17.0464 2.9536 18.3 4.5 18.3L16.5 18.3C18.0464 18.3 19.3 17.0464 19.3 15.5ZM20.5 6.5C20.5 4.29086 18.7091 2.5 16.5 2.5L4.5 2.5C2.29086 2.5 0.5 4.29086 0.5 6.5L0.499999 15.5C0.499999 17.7091 2.29086 19.5 4.5 19.5L16.5 19.5C18.7091 19.5 20.5 17.7091 20.5 15.5L20.5 6.5Z" fill="#0B0F1C"/>
<path fill-rule="evenodd" clip-rule="evenodd" d="M0.236084 6.5V8.5L20.2361 8.5V6.5C20.2361 4.29086 18.4452 2.5 16.2361 2.5H4.23608C2.02695 2.5 0.236084 4.29086 0.236084 6.5Z" fill="white"/>
<path fill-rule="evenodd" clip-rule="evenodd" d="M1.7 6.5V7.3H19.3V6.5C19.3 4.9536 18.0464 3.7 16.5 3.7H4.5C2.9536 3.7 1.7 4.9536 1.7 6.5ZM0.5 6.5C0.5 4.29086 2.29086 2.5 4.5 2.5H16.5C18.7091 2.5 20.5 4.29086 20.5 6.5V8.5L0.5 8.5V6.5Z" fill="#0B0F1C"/>
<path d="M6.9 0.5C7.23137 0.5 7.5 0.768629 7.5 1.1L7.5 4.9C7.5 5.23137 7.23137 5.5 6.9 5.5C6.56863 5.5 6.3 5.23137 6.3 4.9L6.3 1.1C6.3 0.768629 6.56863 0.5 6.9 0.5Z" fill="#0B0F1C"/>
<path d="M13.9 0.5C14.2314 0.5 14.5 0.768629 14.5 1.1L14.5 4.9C14.5 5.23137 14.2314 5.5 13.9 5.5C13.5686 5.5 13.3 5.23137 13.3 4.9L13.3 1.1C13.3 0.768629 13.5686 0.5 13.9 0.5Z" fill="#0B0F1C"/>
<line x1="4.57104" y1="8.5" x2="4.57104" y2="18.5" stroke="black"/>
<line x1="8.57104" y1="8.5" x2="8.57104" y2="18.5" stroke="black"/>
<line x1="12.571" y1="8.5" x2="12.571" y2="18.5" stroke="black"/>
<line x1="16.571" y1="8.5" x2="16.571" y2="18.5" stroke="black"/>
<line x1="19.699" y1="11.5" x2="0.5" y2="11.5" stroke="black"/>
<line x1="19.699" y1="15.2651" x2="0.5" y2="15.2651" stroke="black"/>
</svg>
