<svg width="55" height="54" viewBox="0 0 55 54" fill="none" xmlns="http://www.w3.org/2000/svg">
<path d="M14.8707 14.8556L19.1484 11.1889C20.3446 10.1636 21.8681 9.6 23.4436 9.6H31.5802C35.2253 9.6 38.1802 12.5549 38.1802 16.2V37.8C38.1802 41.4451 35.2253 44.4 31.5802 44.4H15.3802C11.7351 44.4 8.78018 41.4451 8.78018 37.8V23.1115C8.78018 21.1848 9.62209 19.3543 11.085 18.1004L14.8707 14.8556Z" stroke="#29324A" stroke-width="1.2"/>
<path d="M19.1487 11.1877C19.9684 10.4851 20.9419 9.9993 21.9804 9.76312V14.3989C21.9804 18.044 19.0255 20.9989 15.3804 20.9989H9.12728C9.50315 19.8859 10.1736 18.8806 11.0852 18.0993L14.8709 14.8544L19.1487 11.1877Z" stroke="#29324A" stroke-width="1.2"/>
<path d="M15.3799 29.7008C15.3799 29.2037 15.7828 28.8008 16.2799 28.8008H23.4799C23.9769 28.8008 24.3799 29.2037 24.3799 29.7008C24.3799 30.1978 23.9769 30.6008 23.4799 30.6008H16.2799C15.7828 30.6008 15.3799 30.1978 15.3799 29.7008Z" fill="#8D95BA"/>
<path d="M15.3799 34.5006C15.3799 34.0035 15.7828 33.6006 16.2799 33.6006H27.9799C28.4769 33.6006 28.8799 34.0035 28.8799 34.5006C28.8799 34.9976 28.4769 35.4006 27.9799 35.4006H16.2799C15.7828 35.4006 15.3799 34.9976 15.3799 34.5006Z" fill="#8D95BA"/>
<circle cx="8.1" cy="8.1" r="7.5" transform="matrix(-1 0 0 1 46.0698 25.2002)" fill="#F7F8FC" stroke="#29324A" stroke-width="1.2"/>
<path d="M34.4058 33.129L35.9508 35.0604C36.5093 35.7585 37.5506 35.8161 38.1828 35.184L41.5338 31.833" stroke="#29324A" stroke-width="1.2" stroke-linecap="round"/>
</svg>
