<svg width="16" height="16" viewBox="0 0 16 16" fill="none" xmlns="http://www.w3.org/2000/svg">
<g id="Edit save">
<g id="Edit">
<path id="Rectangle 1121" d="M8.79407 1.5459H6.54395C3.78252 1.5459 1.54395 3.78447 1.54395 6.5459V9.45438C1.54395 12.2158 3.78252 14.4544 6.54395 14.4544H9.43305C12.1945 14.4544 14.4331 12.2158 14.4331 9.45438V7.19336" stroke="#5A6182" stroke-width="1.2" stroke-linecap="round"/>
<path id="Union" d="M8.59705 9.88833L9.021 10.3129L8.59705 9.88833ZM8.59704 9.88832L8.74413 10.4704L8.59704 9.88832ZM6.17571 7.73123L5.59449 7.58391L6.17571 7.73123ZM14.9344 3.54147L14.5104 3.11689L14.9344 3.54147ZM13.2736 1.59518L14.5104 2.83384L15.3583 1.98467L14.1215 0.74602L13.2736 1.59518ZM6.80936 7.78612L12.991 1.59519L12.1431 0.74602L5.96147 6.93695L6.80936 7.78612ZM6.33788 9.53686L6.75694 7.87854L5.59449 7.58391L5.17543 9.24223L6.33788 9.53686ZM8.44994 9.30622L6.58066 9.78L6.87484 10.9442L8.74413 10.4704L8.44994 9.30622ZM14.5104 3.11689L8.17311 9.46374L9.021 10.3129L15.3583 3.96606L14.5104 3.11689ZM8.11252 10.242C8.31199 10.5161 8.74022 10.5941 9.021 10.3129L8.17311 9.46374C8.45388 9.18255 8.88209 9.26057 9.08156 9.53467L8.11252 10.242ZM8.74413 10.4704C8.50677 10.5306 8.25673 10.4401 8.11252 10.242L9.08156 9.53467C8.93735 9.3365 8.68731 9.24606 8.44994 9.30622L8.74413 10.4704ZM5.17543 9.24223C4.91545 10.271 5.84757 11.2046 6.87484 10.9442L6.58066 9.78C6.4339 9.8172 6.30074 9.68384 6.33788 9.53686L5.17543 9.24223ZM5.96147 6.93695C5.78316 7.11554 5.65636 7.33907 5.59449 7.58391L6.75694 7.87854C6.76578 7.84357 6.78389 7.81163 6.80936 7.78612L5.96147 6.93695ZM14.5104 2.83384C14.5885 2.912 14.5885 3.03873 14.5104 3.11689L15.3583 3.96606C15.9046 3.41891 15.9046 2.53182 15.3583 1.98467L14.5104 2.83384ZM14.1215 0.74602C13.5752 0.198875 12.6894 0.198876 12.1431 0.74602L12.991 1.59519C13.0691 1.51702 13.1956 1.51702 13.2736 1.59518L14.1215 0.74602Z" fill="#5A6182"/>
</g>
</g>
</svg>
