<svg width="24" height="24" viewBox="0 0 24 24" fill="none" xmlns="http://www.w3.org/2000/svg">
<g id="Group 69">
<rect id="Rectangle 1102" x="1.1" y="1.1" width="21.8" height="21.8" rx="5.4" fill="#FEF1F4" stroke="#C92946" stroke-width="1.2"/>
<g id="Vector">
<path d="M15.3695 5.09717C15.56 4.76715 15.982 4.65408 16.3121 4.84462C16.6421 5.03515 16.7552 5.45715 16.5646 5.78717L8.62962 19.531C8.43908 19.861 8.01708 19.9741 7.68706 19.7836C7.35704 19.593 7.24396 19.171 7.4345 18.841L15.3695 5.09717Z" fill="#C92946"/>
<path d="M12.9139 7.79488C13.4662 7.35388 13.7361 6.6125 13.5415 5.88615C13.3468 5.15967 12.7422 4.65251 12.0432 4.54688C11.4909 4.98788 11.221 5.72926 11.4156 6.45561C11.6103 7.18209 12.2149 7.68925 12.9139 7.79488Z" fill="#C92946"/>
<path d="M15.4564 9.26277C15.5622 8.56395 16.0693 7.95952 16.7957 7.7649C17.5221 7.57024 18.2637 7.84027 18.7046 8.39278C18.5989 9.0916 18.0918 9.69603 17.3654 9.89066C16.6389 10.0853 15.8974 9.81528 15.4564 9.26277Z" fill="#C92946"/>
<path d="M9.57393 14.5366C9.88676 13.4735 9.56673 12.2787 8.66362 11.5209C7.7605 10.7631 6.52822 10.6554 5.53569 11.1481C5.22285 12.2111 5.54288 13.4059 6.446 14.1637C7.34911 14.9215 8.58139 15.0292 9.57393 14.5366Z" fill="#C92946"/>
<path d="M11.2878 15.5261C12.052 14.7237 13.2468 14.4034 14.3546 14.8066C15.4624 15.2098 16.1718 16.2232 16.2414 17.329C15.4773 18.1314 14.2825 18.4517 13.1747 18.0485C12.0668 17.6453 11.3574 16.6319 11.2878 15.5261Z" fill="#C92946"/>
<path d="M11.1524 10.9982C11.6875 10.2724 11.7754 9.26957 11.2957 8.4387C10.816 7.60788 9.90366 7.18257 9.00758 7.28305C8.47244 8.00885 8.38458 9.01166 8.86428 9.84252C9.34396 10.6734 10.2563 11.0987 11.1524 10.9982Z" fill="#C92946"/>
<path d="M13.5632 12.39C13.9241 11.5637 14.7487 10.9862 15.7081 10.9862C16.6674 10.9862 17.4919 11.5636 17.8529 12.3899C17.4919 13.2162 16.6674 13.7937 15.708 13.7937C14.7487 13.7937 13.9242 13.2163 13.5632 12.39Z" fill="#C92946"/>
</g>
</g>
</svg>
