<svg width="55" height="54" viewBox="0 0 55 54" fill="none" xmlns="http://www.w3.org/2000/svg">
<path d="M22.1593 12.8999C24.6996 8.50004 31.0502 8.50003 33.5905 12.8999L46.0615 34.5003C48.6018 38.9002 45.4264 44.4 40.3459 44.4H15.4039C10.3234 44.4 7.14804 38.9002 9.6883 34.5003L22.1593 12.8999Z" stroke="#29324A" stroke-width="1.2"/>
<path d="M26.4351 18.3609C26.4351 17.5656 27.0797 16.9209 27.875 16.9209C28.6703 16.9209 29.315 17.5656 29.315 18.3609V32.7604C29.315 33.5557 28.6703 34.2004 27.875 34.2004C27.0797 34.2004 26.4351 33.5557 26.4351 32.7604V18.3609Z" fill="#29324A"/>
<path d="M26.4351 38.5203C26.4351 37.725 27.0797 37.0803 27.875 37.0803C28.6703 37.0803 29.315 37.725 29.315 38.5203C29.315 39.3155 28.6703 39.9602 27.875 39.9602C27.0797 39.9602 26.4351 39.3155 26.4351 38.5203Z" fill="#29324A"/>
</svg>
