<svg width="32" height="32" viewBox="0 0 32 32" fill="none" xmlns="http://www.w3.org/2000/svg">
<rect opacity="0.5" x="7.64286" y="3.14286" width="19.2857" height="21.8571" rx="4.5" fill="#F7F8FC" stroke="#8D95BA" stroke-width="1.28571"/>
<path d="M8.47871 9.82885L11.2287 7.47172C12.0676 6.75267 13.136 6.35742 14.2409 6.35742H19.4716C22.0279 6.35742 24.1001 8.4297 24.1001 10.986V24.8717C24.1001 27.428 22.0279 29.5003 19.4716 29.5003H9.05728C6.50099 29.5003 4.42871 27.428 4.42871 24.8717V15.4291C4.42871 14.0779 5.01914 12.7942 6.04505 11.9148L8.47871 9.82885Z" fill="white"/>
<path fill-rule="evenodd" clip-rule="evenodd" d="M22.7116 24.8717V10.986C22.7116 9.19659 21.261 7.74599 19.4716 7.74599H14.2409C13.4675 7.74599 12.7196 8.02266 12.1324 8.526L6.94872 12.9691C6.23059 13.5847 5.81728 14.4833 5.81728 15.4291V24.8717C5.81728 26.6611 7.26788 28.1117 9.05728 28.1117H19.4716C21.261 28.1117 22.7116 26.6611 22.7116 24.8717ZM11.2287 7.47172L6.04505 11.9148C5.01914 12.7942 4.42871 14.0779 4.42871 15.4291V24.8717C4.42871 27.428 6.50099 29.5003 9.05728 29.5003H19.4716C22.0279 29.5003 24.1001 27.428 24.1001 24.8717V10.986C24.1001 8.4297 22.0279 6.35742 19.4716 6.35742H14.2409C13.136 6.35742 12.0676 6.75267 11.2287 7.47172Z" fill="#383E5C"/>
<path fill-rule="evenodd" clip-rule="evenodd" d="M13.6858 6.39062V9.82872C13.6858 12.385 11.6135 14.4573 9.05721 14.4573H4.53174C4.74252 13.4756 5.26926 12.5796 6.04498 11.9147L8.47864 9.82866L11.2286 7.47153C11.926 6.87376 12.782 6.49978 13.6858 6.39062Z" fill="#F7F8FC"/>
<path fill-rule="evenodd" clip-rule="evenodd" d="M13.6858 6.39062C13.2037 6.44885 12.7353 6.58241 12.2972 6.7851C11.914 6.9624 11.554 7.1926 11.2286 7.47153L6.04498 11.9147C5.65666 12.2475 5.33074 12.6383 5.0756 13.0687C4.82107 13.4981 4.637 13.967 4.53174 14.4573H9.05721C11.6135 14.4573 13.6858 12.385 13.6858 9.82872V6.39062ZM12.2972 8.39353C12.241 8.43571 12.186 8.47981 12.1323 8.52581L6.94865 12.9689C6.91075 13.0014 6.8737 13.0347 6.83752 13.0687H9.05721C10.8466 13.0687 12.2972 11.6181 12.2972 9.82872V8.39353Z" fill="#383E5C"/>
</svg>
