<svg width="20" height="20" viewBox="0 0 20 20" fill="none" xmlns="http://www.w3.org/2000/svg">
<g id="Flowchart">
<path id="Union" fill-rule="evenodd" clip-rule="evenodd" d="M0 3C0 1.34315 1.34315 0 3 0H6C7.31297 0 8.42895 0.843465 8.83563 2.01811C9.01632 2.54 9.44771 3 10 3C10.5523 3 10.9837 2.54 11.1644 2.01811C11.5711 0.843465 12.687 0 14 0H17C18.6569 0 20 1.34315 20 3V6C20 7.31297 19.1565 8.42895 17.9819 8.83563C17.46 9.01632 17 9.44772 17 10C17 10.5523 17.46 10.9837 17.9819 11.1644C19.1565 11.5711 20 12.687 20 14V17C20 18.6569 18.6569 20 17 20H14C12.687 20 11.5711 19.1565 11.1644 17.9819C10.9837 17.46 10.5523 17 10 17C9.44772 17 9.01632 17.46 8.83563 17.9819C8.42895 19.1565 7.31297 20 6 20H3C1.34315 20 0 18.6569 0 17V14C0 12.3431 1.34315 11 3 11H6C7.31297 11 8.42895 11.8435 8.83563 13.0181C9.01632 13.54 9.44772 14 10 14C10.5523 14 10.9837 13.54 11.1644 13.0181C11.4645 12.1511 12.1511 11.4645 13.0181 11.1644C13.54 10.9837 14 10.5523 14 10C14 9.44772 13.54 9.01632 13.0181 8.83563C12.1511 8.53546 11.4645 7.84889 11.1644 6.98189C10.9837 6.46 10.5523 6 10 6C9.44772 6 9.01632 6.46 8.83563 6.98189C8.42895 8.15653 7.31297 9 6 9H3C1.34315 9 0 7.65685 0 6V3Z" fill="#0B0F1C"/>
<path id="Union (Stroke)" fill-rule="evenodd" clip-rule="evenodd" d="M3 1.2C2.00589 1.2 1.2 2.00589 1.2 3V6C1.2 6.99411 2.00589 7.8 3 7.8H6C6.78592 7.8 7.45713 7.29561 7.70167 6.5893C7.9692 5.81655 8.72744 4.8 10 4.8C11.2726 4.8 12.0308 5.81655 12.2983 6.5893C12.4781 7.10857 12.8914 7.52188 13.4107 7.70167C14.1834 7.9692 15.2 8.72744 15.2 10C15.2 11.2726 14.1834 12.0308 13.4107 12.2983C12.8914 12.4781 12.4781 12.8914 12.2983 13.4107C12.0308 14.1834 11.2726 15.2 10 15.2C8.72744 15.2 7.9692 14.1834 7.70167 13.4107C7.45713 12.7044 6.78592 12.2 6 12.2H3C2.00589 12.2 1.2 13.0059 1.2 14V17C1.2 17.9941 2.00589 18.8 3 18.8H6C6.78592 18.8 7.45713 18.2956 7.70167 17.5893C7.9692 16.8166 8.72744 15.8 10 15.8C11.2726 15.8 12.0308 16.8166 12.2983 17.5893C12.5429 18.2956 13.2141 18.8 14 18.8H17C17.9941 18.8 18.8 17.9941 18.8 17V14C18.8 13.2141 18.2956 12.5429 17.5893 12.2983C16.8166 12.0308 15.8 11.2726 15.8 10C15.8 8.72744 16.8166 7.9692 17.5893 7.70167C18.2956 7.45713 18.8 6.78592 18.8 6V3C18.8 2.00589 17.9941 1.2 17 1.2H14C13.2141 1.2 12.5429 1.70439 12.2983 2.4107C12.0308 3.18345 11.2726 4.2 10 4.2C8.72744 4.2 7.9692 3.18345 7.70167 2.4107C7.45713 1.70439 6.78592 1.2 6 1.2H3ZM3 0C1.34315 0 0 1.34315 0 3V6C0 7.65685 1.34315 9 3 9H6C7.31297 9 8.42895 8.15653 8.83563 6.98189C9.01632 6.46 9.44771 6 10 6C10.5523 6 10.9837 6.46 11.1644 6.98189C11.4645 7.84889 12.1511 8.53546 13.0181 8.83563C13.54 9.01632 14 9.44771 14 10C14 10.5523 13.54 10.9837 13.0181 11.1644C12.1511 11.4645 11.4645 12.1511 11.1644 13.0181C10.9837 13.54 10.5523 14 10 14C9.44771 14 9.01632 13.54 8.83563 13.0181C8.42895 11.8435 7.31297 11 6 11H3C1.34315 11 0 12.3431 0 14V17C0 18.6569 1.34315 20 3 20H6C7.31297 20 8.42895 19.1565 8.83563 17.9819C9.01632 17.46 9.44771 17 10 17C10.5523 17 10.9837 17.46 11.1644 17.9819C11.5711 19.1565 12.687 20 14 20H17C18.6569 20 20 18.6569 20 17V14C20 12.687 19.1565 11.5711 17.9819 11.1644C17.46 10.9837 17 10.5523 17 10C17 9.44771 17.46 9.01632 17.9819 8.83563C19.1565 8.42895 20 7.31297 20 6V3C20 1.34315 18.6569 0 17 0H14C12.687 0 11.5711 0.843465 11.1644 2.01811C10.9837 2.54 10.5523 3 10 3C9.44772 3 9.01632 2.54 8.83563 2.01811C8.42895 0.843465 7.31297 0 6 0H3Z" fill="#0B0F1C"/>
</g>
</svg>
