<svg width="40" height="34" viewBox="0 0 40 34" fill="none" xmlns="http://www.w3.org/2000/svg">
<g id="Folder">
<path id="Union" d="M10.7679 0.9C13.5887 0.9 16.1419 2.56987 17.2726 5.15418C18.0574 6.94807 19.7174 8.9 22.0779 8.9L30 8.9C35.0258 8.9 39.1 12.9742 39.1 18V24C39.1 29.0258 35.0258 33.1 30 33.1H10C4.97421 33.1 0.9 29.0258 0.9 24V18C0.9 17.8242 0.904974 17.6497 0.914779 17.4765C1.02986 15.4442 0.985312 13.2299 0.942574 11.1055C0.921058 10.036 0.9 8.98924 0.9 8C0.9 4.07878 4.07878 0.9 8 0.9H10.7679Z" fill="white" stroke="#5A6182" stroke-width="1.8"/>
<path id="Rectangle 1058" d="M12 27.2C12 26.5373 12.5373 26 13.2 26H26.8C27.4627 26 28 26.5373 28 27.2C28 27.8627 27.4627 28.4 26.8 28.4H13.2C12.5373 28.4 12 27.8627 12 27.2Z" fill="#E6E8F2"/>
</g>
</svg>
