<svg width="28" height="39" viewBox="0 0 28 39" fill="none" xmlns="http://www.w3.org/2000/svg">
<g id="Component 6">
<g id="Union">
<mask id="path-1-outside-1_1840_67284" maskUnits="userSpaceOnUse" x="0.0644531" y="0" width="28" height="39" fill="black">
<rect fill="white" x="0.0644531" width="28" height="39"/>
<path fill-rule="evenodd" clip-rule="evenodd" d="M2.06463 7.89473C2.06463 4.63916 4.70379 2 7.95936 2H20.012C23.2676 2 25.9067 4.63916 25.9067 7.89474C25.9067 12.7189 22.4907 16.7453 17.9455 17.6867C16.8689 17.9097 15.9723 18.7821 15.9723 19.8815C15.9723 20.9809 16.8689 21.8533 17.9455 22.0763C22.4905 23.0178 25.9066 27.0441 25.9066 31.8682C25.9066 35.1238 23.2674 37.763 20.0118 37.763L7.95919 37.763C4.70362 37.763 2.06445 35.1238 2.06445 31.8682C2.06445 27.0441 5.48045 23.0178 10.0255 22.0763C11.1021 21.8533 11.9987 20.9809 11.9987 19.8815C11.9987 18.782 11.1021 17.9097 10.0255 17.6867C5.48055 16.7451 2.06463 12.7188 2.06463 7.89473Z"/>
</mask>
<path d="M10.0255 17.6867L10.269 16.5116L10.0255 17.6867ZM10.0255 22.0763L10.2689 23.2513L10.0255 22.0763ZM7.95919 37.763L7.95919 38.963L7.95919 37.763ZM20.012 0.8H7.95936V3.2H20.012V0.8ZM18.1889 18.8618C23.2799 17.8073 27.1067 13.2993 27.1067 7.89474H24.7067C24.7067 12.1386 21.7014 15.6833 17.7021 16.5117L18.1889 18.8618ZM27.1066 31.8682C27.1066 26.4638 23.2798 21.9558 18.1889 20.9012L17.7021 23.2513C21.7013 24.0798 24.7066 27.6244 24.7066 31.8682H27.1066ZM7.95919 38.963L20.0118 38.963L20.0118 36.563L7.95919 36.563L7.95919 38.963ZM9.78209 20.9012C4.69117 21.9558 0.864453 26.4638 0.864453 31.8682H3.26445C3.26445 27.6244 6.26972 24.0798 10.2689 23.2513L9.78209 20.9012ZM0.864629 7.89473C0.864629 13.2991 4.69127 17.8071 9.78211 18.8617L10.269 16.5116C6.26984 15.6831 3.26463 12.1385 3.26463 7.89473H0.864629ZM13.1987 19.8815C13.1987 18.0771 11.7577 16.82 10.269 16.5116L9.78211 18.8617C10.4466 18.9994 10.7987 19.487 10.7987 19.8815H13.1987ZM10.2689 23.2513C11.7577 22.9429 13.1987 21.6859 13.1987 19.8815H10.7987C10.7987 20.276 10.4465 20.7636 9.78209 20.9012L10.2689 23.2513ZM7.95919 36.563C5.36636 36.563 3.26445 34.4611 3.26445 31.8682H0.864453C0.864453 35.7866 4.04088 38.963 7.95919 38.963L7.95919 36.563ZM14.7723 19.8815C14.7723 21.6859 16.2133 22.9429 17.7021 23.2513L18.1889 20.9012C17.5244 20.7636 17.1723 20.276 17.1723 19.8815H14.7723ZM17.7021 16.5117C16.2134 16.8201 14.7723 18.0771 14.7723 19.8815H17.1723C17.1723 19.487 17.5245 18.9994 18.1889 18.8618L17.7021 16.5117ZM24.7066 31.8682C24.7066 34.4611 22.6047 36.563 20.0118 36.563L20.0118 38.963C23.9301 38.963 27.1066 35.7866 27.1066 31.8682H24.7066ZM7.95936 0.8C4.04105 0.8 0.864629 3.97642 0.864629 7.89473H3.26463C3.26463 5.3019 5.36653 3.2 7.95936 3.2V0.8ZM20.012 3.2C22.6048 3.2 24.7067 5.30191 24.7067 7.89474H27.1067C27.1067 3.97642 23.9303 0.8 20.012 0.8V3.2Z" fill="#29324A" mask="url(#path-1-outside-1_1840_67284)"/>
</g>
<path id="Vector 72" d="M11.7211 27.1194L2.29847 31.6393C1.29096 32.0237 1.43462 34.2605 1.68872 34.7849C3.51795 38.5596 4.1277 37.9655 13.8836 37.9655C23.6395 37.9655 25.4687 37.3014 26.0785 34.7849C26.5663 32.7717 25.8752 31.849 25.4687 31.6393L16.0461 27.1194C14.679 26.4636 13.0882 26.4636 11.7211 27.1194Z" fill="#29324A" stroke="#29324A" stroke-linecap="round" stroke-linejoin="round"/>
</g>
</svg>
