<svg width="32" height="32" viewBox="0 0 32 32" fill="none" xmlns="http://www.w3.org/2000/svg">
<path d="M12.1843 6.50751C12.5921 6.50751 12.9227 6.83813 12.9227 7.24597L12.9227 11.9229C12.9227 12.3307 12.5921 12.6614 12.1843 12.6614C11.7764 12.6614 11.4458 12.3307 11.4458 11.9229L11.4458 7.24597C11.4458 6.83813 11.7764 6.50751 12.1843 6.50751Z" fill="#181E30"/>
<path d="M19.815 6.50751C20.2228 6.50751 20.5535 6.83813 20.5535 7.24597L20.5535 11.9229C20.5535 12.3307 20.2228 12.6614 19.815 12.6614C19.4072 12.6614 19.0765 12.3307 19.0765 11.9229L19.0765 7.24597C19.0765 6.83813 19.4072 6.50751 19.815 6.50751Z" fill="#181E30"/>
<mask id="path-3-inside-1_1902_22020" fill="white">
<path fill-rule="evenodd" clip-rule="evenodd" d="M10.6009 10.1254C9.15361 10.1254 7.98035 11.2987 7.98035 12.746C7.98035 16.2289 10.2453 19.1829 13.3826 20.2153C13.473 20.2451 13.5323 20.3317 13.5323 20.4268V23.0324C13.5323 24.3951 14.6371 25.4999 15.9999 25.4999C17.3627 25.4999 18.4674 24.3951 18.4674 23.0324V20.4268C18.4674 20.3317 18.5267 20.2451 18.6171 20.2153C21.7545 19.1829 24.0194 16.2289 24.0194 12.746C24.0194 11.2987 22.8461 10.1254 21.3988 10.1254H10.6009Z"/>
</mask>
<path fill-rule="evenodd" clip-rule="evenodd" d="M10.6009 10.1254C9.15361 10.1254 7.98035 11.2987 7.98035 12.746C7.98035 16.2289 10.2453 19.1829 13.3826 20.2153C13.473 20.2451 13.5323 20.3317 13.5323 20.4268V23.0324C13.5323 24.3951 14.6371 25.4999 15.9999 25.4999C17.3627 25.4999 18.4674 24.3951 18.4674 23.0324V20.4268C18.4674 20.3317 18.5267 20.2451 18.6171 20.2153C21.7545 19.1829 24.0194 16.2289 24.0194 12.746C24.0194 11.2987 22.8461 10.1254 21.3988 10.1254H10.6009Z" fill="#181E30"/>
<path d="M18.6171 20.2153L19.0788 21.6182L18.6171 20.2153ZM13.3826 20.2153L13.8443 18.8124L13.3826 20.2153ZM9.45727 12.746C9.45727 12.1144 9.9693 11.6024 10.6009 11.6024V8.6485C8.33793 8.6485 6.50342 10.483 6.50342 12.746H9.45727ZM13.8443 18.8124C11.2947 17.9734 9.45727 15.5724 9.45727 12.746H6.50342C6.50342 16.8855 9.19581 20.3924 12.9209 21.6182L13.8443 18.8124ZM15.0093 23.0324V20.4268H12.0554V23.0324H15.0093ZM15.9999 24.023C15.4528 24.023 15.0093 23.5795 15.0093 23.0324H12.0554C12.0554 25.2108 13.8214 26.9768 15.9999 26.9768V24.023ZM16.9905 23.0324C16.9905 23.5795 16.547 24.023 15.9999 24.023V26.9768C18.1783 26.9768 19.9443 25.2108 19.9443 23.0324H16.9905ZM16.9905 20.4268V23.0324H19.9443V20.4268H16.9905ZM22.5425 12.746C22.5425 15.5724 20.705 17.9734 18.1555 18.8124L19.0788 21.6182C22.804 20.3924 25.4963 16.8855 25.4963 12.746H22.5425ZM21.3988 11.6024C22.0305 11.6024 22.5425 12.1144 22.5425 12.746H25.4963C25.4963 10.483 23.6618 8.6485 21.3988 8.6485V11.6024ZM10.6009 11.6024H21.3988V8.6485H10.6009V11.6024ZM19.9443 20.4268C19.9443 20.9328 19.6283 21.4374 19.0788 21.6182L18.1555 18.8124C17.4251 19.0528 16.9905 19.7305 16.9905 20.4268H19.9443ZM12.9209 21.6182C12.3714 21.4374 12.0554 20.9328 12.0554 20.4268H15.0093C15.0093 19.7305 14.5746 19.0528 13.8443 18.8124L12.9209 21.6182Z" fill="#181E30" mask="url(#path-3-inside-1_1902_22020)"/>
</svg>
