<svg width="10" height="10" viewBox="0 0 10 10" fill="none" xmlns="http://www.w3.org/2000/svg">
<g id="Union">
<path id="Union_2" fill-rule="evenodd" clip-rule="evenodd" d="M4.57141 9.57143C4.57141 9.80812 4.76329 10 4.99998 10C5.23668 10 5.42855 9.80812 5.42855 9.57143V5.41661L9.58333 5.41661C9.81345 5.41661 10 5.23006 10 4.99994C10 4.76982 9.81345 4.58328 9.58333 4.58328L5.42855 4.58328V0.428572C5.42855 0.191878 5.23668 0 4.99998 0C4.76329 0 4.57141 0.191878 4.57141 0.428571V4.58328L0.416666 4.58327C0.186547 4.58327 0 4.76982 0 4.99994C0 5.23006 0.186547 5.41661 0.416666 5.41661L4.57141 5.41661V9.57143Z" fill="black"/>
</g>
</svg>
