<svg width="55" height="54" viewBox="0 0 55 54" fill="none" xmlns="http://www.w3.org/2000/svg">
<path d="M22.2297 20.2551L24.6742 18.1599C25.3111 17.614 26.1223 17.3139 26.9612 17.3139H31.6107C33.5516 17.3139 35.125 18.8873 35.125 20.8282V33.171C35.125 35.1119 33.5516 36.6853 31.6107 36.6853H22.3535C20.4127 36.6853 18.8393 35.1119 18.8393 33.171V24.7776C18.8393 23.7517 19.2875 22.777 20.0665 22.1094L22.2297 20.2551Z" stroke="#29324A" stroke-width="1.2"/>
<path d="M24.6738 18.1595C25.0266 17.8572 25.4328 17.6302 25.8675 17.4879V19.7992C25.8675 21.7401 24.2941 23.3135 22.3532 23.3135H19.1582C19.3677 22.8562 19.6753 22.444 20.0661 22.109L22.2294 20.2547L24.6738 18.1595Z" stroke="#29324A" stroke-width="1.2"/>
<path d="M25.7822 28.6102C25.7822 28.2883 26.0432 28.0273 26.3651 28.0273H31.0279C31.3498 28.0273 31.6108 28.2883 31.6108 28.6102C31.6108 28.9321 31.3498 29.1931 31.0279 29.1931H26.3651C26.0432 29.1931 25.7822 28.9321 25.7822 28.6102Z" fill="#8D95BA"/>
<path d="M22.8677 31.7186C22.8677 31.3967 23.1286 31.1357 23.4505 31.1357H31.0277C31.3496 31.1357 31.6105 31.3967 31.6105 31.7186C31.6105 32.0405 31.3496 32.3015 31.0277 32.3015H23.4505C23.1286 32.3015 22.8677 32.0405 22.8677 31.7186Z" fill="#8D95BA"/>
<path d="M9.625 27C9.625 17.0589 17.699 9 27.6588 9C34.5964 9 40.619 12.9101 43.6353 18.6429M39.252 18.6429H43.7605V14.1429" stroke="#29324A" stroke-width="1.2" stroke-linecap="round" stroke-linejoin="round"/>
<path d="M45.625 27C45.625 36.9411 37.5342 45 27.5537 45C20.6017 45 14.5666 41.0899 11.5441 35.3571M15.9364 35.3571L11.4186 35.3571L11.4186 39.8571" stroke="#29324A" stroke-width="1.2" stroke-linecap="round" stroke-linejoin="round"/>
</svg>
