<svg width="24" height="22" viewBox="0 0 24 22" fill="none" xmlns="http://www.w3.org/2000/svg">
<g id="Component 8">
<path id="Polygon 2" d="M8.88236 2.89994C10.2679 0.500021 13.7319 0.50002 15.1175 2.89994L22.3923 15.5002C23.7779 17.9001 22.0459 20.9 19.2747 20.9H4.72519C1.954 20.9 0.222007 17.9001 1.6076 15.5002L8.88236 2.89994Z" stroke="#B50021" stroke-width="1.2"/>
<g id="Vector">
<path d="M11.1602 5.96107C11.1602 5.49716 11.5362 5.12109 12.0001 5.12109C12.464 5.12109 12.8401 5.49716 12.8401 5.96107V14.3608C12.8401 14.8247 12.464 15.2008 12.0001 15.2008C11.5362 15.2008 11.1602 14.8247 11.1602 14.3608V5.96107Z" fill="#B50021"/>
<path d="M11.1602 17.7207C11.1602 17.2568 11.5362 16.8808 12.0001 16.8808C12.464 16.8808 12.8401 17.2568 12.8401 17.7207C12.8401 18.1846 12.464 18.5607 12.0001 18.5607C11.5362 18.5607 11.1602 18.1846 11.1602 17.7207Z" fill="#B50021"/>
</g>
</g>
</svg>
