<svg width="30" height="32" viewBox="0 0 30 32" fill="none" xmlns="http://www.w3.org/2000/svg">
<path d="M6.5 11C6.5 9.34315 7.84315 8 9.5 8H20.5C22.1569 8 23.5 9.34315 23.5 11V23C23.5 24.6569 22.1569 26 20.5 26H9.5C7.84315 26 6.5 24.6569 6.5 23V11Z" fill="#0B0F1C"/>
<path fill-rule="evenodd" clip-rule="evenodd" d="M20.5 9.2H9.5C8.50589 9.2 7.7 10.0059 7.7 11V23C7.7 23.9941 8.50589 24.8 9.5 24.8H20.5C21.4941 24.8 22.3 23.9941 22.3 23V11C22.3 10.0059 21.4941 9.2 20.5 9.2ZM9.5 8C7.84315 8 6.5 9.34315 6.5 11V23C6.5 24.6569 7.84315 26 9.5 26H20.5C22.1569 26 23.5 24.6569 23.5 23V11C23.5 9.34315 22.1569 8 20.5 8H9.5Z" fill="#0B0F1C"/>
<path d="M9.5 8.5C9.5 7.11929 10.6193 6 12 6H18C19.3807 6 20.5 7.11929 20.5 8.5C20.5 9.88071 19.3807 11 18 11H12C10.6193 11 9.5 9.88071 9.5 8.5Z" fill="#0B0F1C"/>
<path fill-rule="evenodd" clip-rule="evenodd" d="M18 7.2H12C11.282 7.2 10.7 7.78203 10.7 8.5C10.7 9.21797 11.282 9.8 12 9.8H18C18.718 9.8 19.3 9.21797 19.3 8.5C19.3 7.78203 18.718 7.2 18 7.2ZM12 6C10.6193 6 9.5 7.11929 9.5 8.5C9.5 9.88071 10.6193 11 12 11H18C19.3807 11 20.5 9.88071 20.5 8.5C20.5 7.11929 19.3807 6 18 6H12Z" fill="white"/>
<path d="M10.5 14.6C10.5 14.2686 10.7686 14 11.1 14H18.9C19.2314 14 19.5 14.2686 19.5 14.6C19.5 14.9314 19.2314 15.2 18.9 15.2H11.1C10.7686 15.2 10.5 14.9314 10.5 14.6Z" fill="white"/>
<path d="M10.5 17.8002C10.5 17.4688 10.7686 17.2002 11.1 17.2002H18.9C19.2314 17.2002 19.5 17.4688 19.5 17.8002C19.5 18.1316 19.2314 18.4002 18.9 18.4002H11.1C10.7686 18.4002 10.5 18.1316 10.5 17.8002Z" fill="white"/>
<path d="M10.5 20.9999C10.5 20.6685 10.7686 20.3999 11.1 20.3999H16.9C17.2314 20.3999 17.5 20.6685 17.5 20.9999C17.5 21.3313 17.2314 21.5999 16.9 21.5999H11.1C10.7686 21.5999 10.5 21.3313 10.5 20.9999Z" fill="white"/>
</svg>
