<svg width="14" height="15" viewBox="0 0 14 15" fill="none" xmlns="http://www.w3.org/2000/svg">
<g id="Trashcan">
<g id="Union">
<mask id="path-1-inside-1_1860_63369" fill="white">
<path fill-rule="evenodd" clip-rule="evenodd" d="M14 4C14 2.89543 13.1046 2 12 2H10H4H2C0.895431 2 0 2.89543 0 4C0 4.74028 0.402199 5.38663 1 5.73244V12C1 13.6569 2.34315 15 4 15H10C11.6569 15 13 13.6569 13 12V5.73244C13.5978 5.38663 14 4.74028 14 4Z"/>
</mask>
<path fill-rule="evenodd" clip-rule="evenodd" d="M14 4C14 2.89543 13.1046 2 12 2H10H4H2C0.895431 2 0 2.89543 0 4C0 4.74028 0.402199 5.38663 1 5.73244V12C1 13.6569 2.34315 15 4 15H10C11.6569 15 13 13.6569 13 12V5.73244C13.5978 5.38663 14 4.74028 14 4Z" fill="white"/>
<path d="M1 5.73244H2.2V5.04029L1.60087 4.69371L1 5.73244ZM13 5.73244L12.3991 4.69371L11.8 5.04029V5.73244H13ZM12 3.2C12.4418 3.2 12.8 3.55817 12.8 4H15.2C15.2 2.23269 13.7673 0.8 12 0.8V3.2ZM10 3.2H12V0.8H10V3.2ZM4 3.2H10V0.8H4V3.2ZM2 3.2H4V0.8H2V3.2ZM1.2 4C1.2 3.55817 1.55817 3.2 2 3.2V0.8C0.232689 0.8 -1.2 2.23269 -1.2 4H1.2ZM1.60087 4.69371C1.35862 4.55357 1.2 4.2946 1.2 4H-1.2C-1.2 5.18596 -0.554223 6.21968 0.399129 6.77116L1.60087 4.69371ZM2.2 12V5.73244H-0.2V12H2.2ZM4 13.8C3.00589 13.8 2.2 12.9941 2.2 12H-0.2C-0.2 14.3196 1.6804 16.2 4 16.2V13.8ZM10 13.8H4V16.2H10V13.8ZM11.8 12C11.8 12.9941 10.9941 13.8 10 13.8V16.2C12.3196 16.2 14.2 14.3196 14.2 12H11.8ZM11.8 5.73244V12H14.2V5.73244H11.8ZM12.8 4C12.8 4.2946 12.6414 4.55357 12.3991 4.69371L13.6009 6.77116C14.5542 6.21968 15.2 5.18596 15.2 4H12.8Z" fill="#DD516B" mask="url(#path-1-inside-1_1860_63369)"/>
</g>
<path id="Vector 78" d="M4.5 2V2C4.5 1.44772 4.94772 1 5.5 1H8.5C9.05228 1 9.5 1.44772 9.5 2V2" stroke="#DD516B" stroke-width="1.2" stroke-linecap="round"/>
<path id="Vector 79" d="M5.05664 6.20801V11.6582M9.00328 6.2085V11.6587" stroke="#DD516B" stroke-width="1.2" stroke-linecap="round"/>
</g>
</svg>
